<svg width="27" height="26" viewBox="0 0 27 26" fill="none" xmlns="http://www.w3.org/2000/svg">
<path d="M13.3446 0.332031C10.8228 0.332031 8.35767 1.07983 6.26088 2.48085C4.1641 3.88188 2.52985 5.87322 1.56481 8.20304C0.599763 10.5329 0.347263 13.0965 0.839239 15.5699C1.33121 18.0432 2.54557 20.3151 4.32874 22.0983C6.11191 23.8814 8.38381 25.0958 10.8571 25.5878C13.3305 26.0797 15.8941 25.8272 18.224 24.8622C20.5538 23.8971 22.5451 22.2629 23.9461 20.1661C25.3472 18.0693 26.095 15.6042 26.095 13.0824C26.0914 9.70188 24.7469 6.46085 22.3565 4.07047C19.9661 1.68009 16.7251 0.335601 13.3446 0.332031ZM18.9425 10.8339L12.0769 17.6995C11.9858 17.7907 11.8777 17.863 11.7586 17.9124C11.6395 17.9617 11.5119 17.9872 11.383 17.9872C11.2541 17.9872 11.1265 17.9617 11.0074 17.9124C10.8884 17.863 10.7802 17.7907 10.6891 17.6995L7.74671 14.7571C7.56267 14.5731 7.45928 14.3235 7.45928 14.0632C7.45928 13.8029 7.56267 13.5533 7.74671 13.3693C7.93074 13.1852 8.18035 13.0818 8.44062 13.0818C8.70089 13.0818 8.9505 13.1852 9.13454 13.3693L11.383 15.619L17.5547 9.44609C17.6458 9.35496 17.754 9.28268 17.873 9.23336C17.9921 9.18404 18.1197 9.15866 18.2486 9.15866C18.3775 9.15866 18.5051 9.18404 18.6241 9.23336C18.7432 9.28268 18.8514 9.35496 18.9425 9.44609C19.0336 9.53721 19.1059 9.6454 19.1552 9.76446C19.2046 9.88352 19.2299 10.0111 19.2299 10.14C19.2299 10.2689 19.2046 10.3965 19.1552 10.5155C19.1059 10.6346 19.0336 10.7428 18.9425 10.8339Z" fill="#A1BD71"/>
</svg>
