<svg width="14" height="14" viewBox="0 0 14 14" fill="none" xmlns="http://www.w3.org/2000/svg">
<path d="M13.2162 13.5081C13.1713 13.5858 13.1068 13.6504 13.0291 13.6952C12.9514 13.74 12.8633 13.7636 12.7736 13.7636H0.51044C0.420792 13.7635 0.332745 13.7399 0.255142 13.695C0.177538 13.6501 0.11311 13.5856 0.0683252 13.5079C0.0235408 13.4303 -2.29986e-05 13.3422 1.68438e-08 13.2525C2.30323e-05 13.1629 0.023632 13.0748 0.0684563 12.9972C1.0412 11.3155 2.54024 10.1096 4.28966 9.53795C3.42432 9.02281 2.752 8.23786 2.37596 7.30363C1.99992 6.36941 1.94094 5.33758 2.20808 4.36659C2.47522 3.3956 3.05371 2.53915 3.85471 1.92876C4.65572 1.31837 5.63494 0.987793 6.64201 0.987793C7.64907 0.987793 8.6283 1.31837 9.4293 1.92876C10.2303 2.53915 10.8088 3.3956 11.0759 4.36659C11.3431 5.33758 11.2841 6.36941 10.9081 7.30363C10.532 8.23786 9.85969 9.02281 8.99436 9.53795C10.7438 10.1096 12.2428 11.3155 13.2156 12.9972C13.2605 13.0748 13.2842 13.1629 13.2843 13.2526C13.2844 13.3423 13.2609 13.4304 13.2162 13.5081Z" fill="#A1BD71"/>
</svg>
