<svg width="13" height="13" viewBox="0 0 13 13" fill="none" xmlns="http://www.w3.org/2000/svg">
<path d="M11.7773 1.70375H10.2406V1.23469C10.2406 1.11028 10.1866 0.990976 10.0906 0.90301C9.99451 0.815044 9.86422 0.765625 9.72837 0.765625C9.59252 0.765625 9.46223 0.815044 9.36617 0.90301C9.27011 0.990976 9.21614 1.11028 9.21614 1.23469V1.70375H4.09388V1.23469C4.09388 1.11028 4.03992 0.990976 3.94386 0.90301C3.84779 0.815044 3.71751 0.765625 3.58166 0.765625C3.44581 0.765625 3.31552 0.815044 3.21946 0.90301C3.1234 0.990976 3.06943 1.11028 3.06943 1.23469V1.70375H1.53275C1.26105 1.70375 1.00048 1.80258 0.808356 1.97852C0.616234 2.15445 0.508301 2.39306 0.508301 2.64187V12.0231C0.508301 12.2719 0.616234 12.5105 0.808356 12.6864C1.00048 12.8624 1.26105 12.9612 1.53275 12.9612H11.7773C12.049 12.9612 12.3095 12.8624 12.5017 12.6864C12.6938 12.5105 12.8017 12.2719 12.8017 12.0231V2.64187C12.8017 2.39306 12.6938 2.15445 12.5017 1.97852C12.3095 1.80258 12.049 1.70375 11.7773 1.70375ZM11.7773 4.51811H1.53275V2.64187H3.06943V3.11093C3.06943 3.23533 3.1234 3.35464 3.21946 3.4426C3.31552 3.53057 3.44581 3.57999 3.58166 3.57999C3.71751 3.57999 3.84779 3.53057 3.94386 3.4426C4.03992 3.35464 4.09388 3.23533 4.09388 3.11093V2.64187H9.21614V3.11093C9.21614 3.23533 9.27011 3.35464 9.36617 3.4426C9.46223 3.53057 9.59252 3.57999 9.72837 3.57999C9.86422 3.57999 9.99451 3.53057 10.0906 3.4426C10.1866 3.35464 10.2406 3.23533 10.2406 3.11093V2.64187H11.7773V4.51811Z" fill="#A1BD71"/>
</svg>
