<svg width="419" height="586" viewBox="0 0 419 586" fill="none" xmlns="http://www.w3.org/2000/svg">
<path d="M247.278 206.239C397.36 187.975 414.336 44.5998 366.057 29.6376C341.294 25.0892 288.432 35.702 275.09 114.54C267.004 155.98 255.684 259.784 275.09 343.473C294.496 427.162 246.789 486.493 220.51 505.697C199.047 521.381 100.736 553 15.834 554.213" stroke="#A1BD71"/>
<path d="M289.259 218.494C279.776 218.816 262.606 216.717 269.785 205.748C276.964 194.779 285.759 209.675 289.259 218.494Z" fill="#A1BD71"/>
<path d="M266.935 174.264C271.955 182.316 278.723 198.235 265.634 197.502C252.544 196.769 261.047 181.705 266.935 174.264Z" fill="#A1BD71"/>
<rect width="0.925781" height="8.11258" transform="matrix(0.998436 0.0559132 0.0559132 -0.998436 264.58 203.09)" fill="#A1BD71"/>
<rect x="273.193" y="207.722" width="0.925781" height="9.59702" transform="rotate(123.205 273.193 207.722)" fill="#A1BD71"/>
<path d="M331.118 205.46C321.64 205.879 304.448 203.957 311.515 192.915C318.581 181.872 327.528 196.677 331.118 205.46Z" fill="#A1BD71"/>
<path d="M308.339 161.462C313.442 169.461 320.373 185.31 307.277 184.712C294.181 184.113 302.529 168.962 308.339 161.462Z" fill="#A1BD71"/>
<rect width="0.925781" height="8.11258" transform="matrix(0.998958 0.045646 0.045646 -0.998958 306.281 190.311)" fill="#A1BD71"/>
<rect x="314.939" y="194.854" width="0.925781" height="9.59702" transform="rotate(122.616 314.939 194.854)" fill="#A1BD71"/>
<path d="M375.52 165.8C367.458 170.803 351.524 177.537 352.284 164.449C353.045 151.362 368.091 159.896 375.52 165.8Z" fill="#A1BD71"/>
<path d="M334.128 138.571C342.491 143.052 356.29 153.483 344.576 159.369C332.861 165.254 332.729 147.956 334.128 138.571Z" fill="#A1BD71"/>
<rect width="0.925781" height="8.11258" transform="matrix(0.893572 -0.44892 -0.44892 -0.893572 346.447 164.739)" fill="#A1BD71"/>
<rect x="356.223" y="164.464" width="0.925781" height="9.59702" transform="rotate(93.3256 356.223 164.464)" fill="#A1BD71"/>
<path d="M405.689 119.615C399.052 126.395 385.183 136.734 382.802 123.842C380.421 110.95 397.068 115.652 405.689 119.615Z" fill="#A1BD71"/>
<path d="M359.001 103.038C368.191 105.395 384.079 112.237 374.105 120.745C364.131 129.253 359.88 112.485 359.001 103.038Z" fill="#A1BD71"/>
<rect width="0.925781" height="8.11258" transform="matrix(0.760807 -0.648978 -0.648978 -0.760807 377.201 125.515)" fill="#A1BD71"/>
<rect x="386.629" y="122.917" width="0.925781" height="9.59702" transform="rotate(79.5354 386.629 122.917)" fill="#A1BD71"/>
<path d="M414.745 63.4727C410.987 72.1848 401.757 86.8149 394.904 75.639C388.051 64.4631 405.276 62.8715 414.745 63.4727Z" fill="#A1BD71"/>
<path d="M365.218 64.7729C374.642 63.6718 391.927 64.3501 385.675 75.8728C379.422 87.3955 369.432 73.274 365.218 64.7729Z" fill="#A1BD71"/>
<rect width="0.925781" height="8.11258" transform="matrix(0.476917 -0.878949 -0.878949 -0.476917 390.279 79.2114)" fill="#A1BD71"/>
<rect x="398.145" y="73.4014" width="0.925781" height="9.59702" transform="rotate(58.4842 398.145 73.4014)" fill="#A1BD71"/>
<path d="M379.144 7.1488C384.127 15.2233 390.821 31.1739 377.735 30.3804C364.65 29.5869 373.222 14.5621 379.144 7.1488Z" fill="#A1BD71"/>
<path d="M351.811 48.4724C356.313 40.1199 366.779 26.3473 372.635 38.0766C378.49 49.8058 361.192 49.8943 351.811 48.4724Z" fill="#A1BD71"/>
<rect width="0.925781" height="8.11258" transform="matrix(-0.446666 -0.894701 -0.894701 0.446666 378.01 36.2192)" fill="#A1BD71"/>
<rect x="377.76" y="26.4434" width="0.925781" height="9.59702" transform="rotate(3.46999 377.76 26.4434)" fill="#A1BD71"/>
<path d="M288.108 32.8108C297.04 29.611 314.033 26.3706 310.542 39.0071C307.052 51.6436 294.132 40.1414 288.108 32.8108Z" fill="#A1BD71"/>
<path d="M322.863 68.1198C315.626 61.984 304.324 48.8886 317.013 45.5929C329.701 42.2973 326.2 59.2376 322.863 68.1198Z" fill="#A1BD71"/>
<rect width="0.925781" height="8.11258" transform="matrix(-0.967885 0.251392 0.251392 0.967885 316.311 39.9497)" fill="#A1BD71"/>
<rect x="306.695" y="38.167" width="0.925781" height="9.59702" transform="rotate(-74.5599 306.695 38.167)" fill="#A1BD71"/>
<path d="M252.441 103.939C258.024 96.267 270.246 84.0256 274.473 96.4352C278.699 108.845 261.546 106.608 252.441 103.939Z" fill="#A1BD71"/>
<path d="M301.041 113.565C291.605 112.566 274.893 108.102 283.526 98.2372C292.16 88.372 298.8 104.345 301.041 113.565Z" fill="#A1BD71"/>
<rect width="0.925781" height="8.11258" transform="matrix(-0.65858 0.75251 0.75251 0.65858 279.77 93.9678)" fill="#A1BD71"/>
<rect x="270.82" y="97.9053" width="0.925781" height="9.59702" transform="rotate(-108.808 270.82 97.9053)" fill="#A1BD71"/>
<path d="M242.349 157.586C247.932 149.914 260.154 137.673 264.381 150.083C268.607 162.492 251.454 160.256 242.349 157.586Z" fill="#A1BD71"/>
<path d="M290.949 167.213C281.513 166.214 264.801 161.75 273.435 151.885C282.068 142.019 288.708 157.993 290.949 167.213Z" fill="#A1BD71"/>
<rect width="0.925781" height="8.11258" transform="matrix(-0.65858 0.75251 0.75251 0.65858 269.678 147.615)" fill="#A1BD71"/>
<rect x="260.729" y="151.553" width="0.925781" height="9.59702" transform="rotate(-108.808 260.729 151.553)" fill="#A1BD71"/>
<path d="M237.595 231.797C243.178 224.125 255.4 211.884 259.627 224.294C263.854 236.703 246.7 234.467 237.595 231.797Z" fill="#A1BD71"/>
<path d="M286.195 241.424C276.759 240.425 260.047 235.961 268.681 226.096C277.315 216.23 283.954 232.204 286.195 241.424Z" fill="#A1BD71"/>
<rect width="0.925781" height="8.11258" transform="matrix(-0.65858 0.75251 0.75251 0.65858 264.924 221.826)" fill="#A1BD71"/>
<rect x="255.975" y="225.764" width="0.925781" height="9.59702" transform="rotate(-108.808 255.975 225.764)" fill="#A1BD71"/>
<path d="M244.76 314.943C247.808 305.958 255.837 290.635 263.563 301.226C271.289 311.817 254.247 314.784 244.76 314.943Z" fill="#A1BD71"/>
<path d="M294.025 309.679C284.72 311.532 267.436 312.24 272.745 300.254C278.054 288.267 289.144 301.543 294.025 309.679Z" fill="#A1BD71"/>
<rect width="0.925781" height="8.11258" transform="matrix(-0.404963 0.914333 0.914333 0.404963 267.889 297.295)" fill="#A1BD71"/>
<rect x="260.514" y="303.716" width="0.925781" height="9.59702" transform="rotate(-126.111 260.514 303.716)" fill="#A1BD71"/>
<path d="M256.09 385.087C259.139 376.101 267.167 360.779 274.893 371.37C282.619 381.961 265.577 384.927 256.09 385.087Z" fill="#A1BD71"/>
<path d="M305.355 379.823C296.05 381.675 278.766 382.384 284.075 370.397C289.384 358.411 300.474 371.686 305.355 379.823Z" fill="#A1BD71"/>
<rect width="0.925781" height="8.11258" transform="matrix(-0.404963 0.914333 0.914333 0.404963 279.219 367.438)" fill="#A1BD71"/>
<rect x="271.844" y="373.86" width="0.925781" height="9.59702" transform="rotate(-126.111 271.844 373.86)" fill="#A1BD71"/>
<path d="M240.916 439.736C248.516 434.056 263.809 425.971 264.181 439.076C264.553 452.18 248.826 444.976 240.916 439.736Z" fill="#A1BD71"/>
<path d="M284.503 463.29C275.784 459.548 261.136 450.346 272.299 443.472C283.462 436.598 285.086 453.819 284.503 463.29Z" fill="#A1BD71"/>
<rect width="0.925781" height="8.11258" transform="matrix(-0.851486 0.524378 0.524378 0.851486 269.971 438.283)" fill="#A1BD71"/>
<rect x="260.256" y="439.401" width="0.925781" height="9.59702" transform="rotate(-91.6264 260.256 439.401)" fill="#A1BD71"/>
<path d="M204.903 485.118C214.221 483.329 231.509 482.738 226.118 494.688C220.728 506.638 209.728 493.288 204.903 485.118Z" fill="#A1BD71"/>
<path d="M233.82 525.348C227.611 518.173 218.455 503.497 231.5 502.19C244.544 500.883 238.481 517.084 233.82 525.348Z" fill="#A1BD71"/>
<rect width="0.925781" height="8.11258" transform="matrix(-0.995019 0.0996858 0.0996858 0.995019 231.674 496.506)" fill="#A1BD71"/>
<rect x="222.445" y="493.267" width="0.925781" height="9.59702" transform="rotate(-65.7211 222.445 493.267)" fill="#A1BD71"/>
<path d="M144.807 511.214C154.294 511.332 171.349 514.223 163.67 524.848C155.991 535.473 147.895 520.186 144.807 511.214Z" fill="#A1BD71"/>
<path d="M165.062 556.43C160.42 548.155 154.396 531.939 167.437 533.277C180.478 534.615 171.288 549.27 165.062 556.43Z" fill="#A1BD71"/>
<rect width="0.925781" height="8.11258" transform="matrix(-0.994779 -0.102054 -0.102054 0.994779 168.748 527.743)" fill="#A1BD71"/>
<rect x="160.357" y="522.718" width="0.925781" height="9.59702" transform="rotate(-54.1426 160.357 522.718)" fill="#A1BD71"/>
<path d="M84.5157 522.194C93.6149 524.883 109.244 532.296 98.9688 540.437C88.6931 548.578 85.0519 531.667 84.5157 522.194Z" fill="#A1BD71"/>
<path d="M91.7316 571.21C89.5107 561.985 88.1158 544.743 100.304 549.572C112.492 554.4 99.6674 566.009 91.7316 571.21Z" fill="#A1BD71"/>
<rect width="0.925781" height="8.11258" transform="matrix(-0.9297 -0.368316 -0.368316 0.9297 103.068 544.602)" fill="#A1BD71"/>
<rect x="96.3594" y="537.488" width="0.925781" height="9.59702" transform="rotate(-38.3882 96.3594 537.488)" fill="#A1BD71"/>
<path d="M17.2911 530.263C26.3903 532.952 42.0198 540.365 31.7441 548.505C21.4685 556.646 17.8273 539.736 17.2911 530.263Z" fill="#A1BD71"/>
<path d="M24.507 579.279C22.2861 570.054 20.8912 552.812 33.0793 557.641C45.2673 562.469 32.4428 574.078 24.507 579.279Z" fill="#A1BD71"/>
<path d="M5.02607 557.439C9.88814 552.712 19.9805 545.572 21.4532 554.824C22.9259 564.077 11.1154 560.423 5.02607 557.439Z" fill="#A1BD71"/>
<rect width="0.925781" height="8.11258" transform="matrix(-0.9297 -0.368316 -0.368316 0.9297 35.8438 552.671)" fill="#A1BD71"/>
<rect x="29.1348" y="545.557" width="0.925781" height="9.59702" transform="rotate(-38.3882 29.1348 545.557)" fill="#A1BD71"/>
</svg>
