<svg width="203" height="390" viewBox="0 0 203 390" fill="none" xmlns="http://www.w3.org/2000/svg">
<path d="M0.679688 351.761C22.9163 361.868 145.754 388.03 179.717 311.61C203.975 257.03 88.8977 170.754 74.9683 128.893C58.8647 85.3232 74.0587 16.7002 155.322 16.7002" stroke="#A1BD71"/>
<path d="M57.5542 380.333C48.4422 377.688 32.7771 370.35 43.0132 362.16C53.2494 353.969 56.9723 370.862 57.5542 380.333Z" fill="#A1BD71"/>
<path d="M50.0993 331.352C52.3648 340.566 53.843 357.801 41.6318 353.031C29.4205 348.262 42.1888 336.591 50.0993 331.352Z" fill="#A1BD71"/>
<rect width="0.925781" height="8.11258" transform="matrix(0.93147 0.363817 0.363817 -0.93147 38.8926 358.014)" fill="#A1BD71"/>
<rect x="45.6367" y="365.096" width="0.925781" height="9.59702" transform="rotate(141.335 45.6367 365.096)" fill="#A1BD71"/>
<path d="M183.033 231.044C185.028 240.32 186.001 257.591 173.934 252.466C161.868 247.341 174.972 236.049 183.033 231.044Z" fill="#A1BD71"/>
<path d="M143.453 260.844C150.489 254.479 164.959 245.001 166.554 258.013C168.149 271.025 151.818 265.322 143.453 260.844Z" fill="#A1BD71"/>
<rect width="0.925781" height="8.11258" transform="matrix(-0.121663 -0.992571 -0.992571 0.121663 172.24 258.06)" fill="#A1BD71"/>
<rect x="175.275" y="248.764" width="0.925781" height="9.59702" transform="rotate(23.0119 175.275 248.764)" fill="#A1BD71"/>
<path d="M195.428 335.147C186.971 339.448 170.523 344.807 172.391 331.831C174.259 318.855 188.527 328.635 195.428 335.147Z" fill="#A1BD71"/>
<path d="M156.494 304.506C164.448 309.679 177.313 321.244 165.141 326.114C152.97 330.985 154.305 313.738 156.494 304.506Z" fill="#A1BD71"/>
<rect width="0.925781" height="8.11258" transform="matrix(0.928426 -0.371516 -0.371516 -0.928426 166.549 331.624)" fill="#A1BD71"/>
<rect x="176.312" y="332.179" width="0.925781" height="9.59702" transform="rotate(98.1908 176.312 332.179)" fill="#A1BD71"/>
<path d="M131.317 380.191C121.885 379.16 105.188 374.639 113.856 364.803C122.524 354.968 129.108 370.964 131.317 380.191Z" fill="#A1BD71"/>
<path d="M115.515 333.234C119.338 341.918 123.771 358.639 110.919 356.05C98.0678 353.461 108.629 339.761 115.515 333.234Z" fill="#A1BD71"/>
<rect width="0.925781" height="8.11258" transform="matrix(0.980308 0.197474 0.197474 -0.980308 109.08 361.432)" fill="#A1BD71"/>
<rect x="116.945" y="367.242" width="0.925781" height="9.59702" transform="rotate(131.389 116.945 367.242)" fill="#A1BD71"/>
<path d="M143.992 178.18C145.835 187.487 146.525 204.772 134.544 199.45C122.563 194.128 135.851 183.052 143.992 178.18Z" fill="#A1BD71"/>
<path d="M103.929 207.328C111.068 201.078 125.692 191.838 127.074 204.875C128.455 217.912 112.219 211.942 103.929 207.328Z" fill="#A1BD71"/>
<rect width="0.925781" height="8.11258" transform="matrix(-0.105382 -0.994432 -0.994432 0.105382 132.758 205.016)" fill="#A1BD71"/>
<rect x="135.943" y="195.77" width="0.925781" height="9.59702" transform="rotate(23.9508 135.943 195.77)" fill="#A1BD71"/>
<path d="M103.214 129.032C104.504 138.432 104.173 155.727 92.5272 149.708C80.8813 143.688 94.7994 133.416 103.214 129.032Z" fill="#A1BD71"/>
<path d="M61.5008 155.765C68.9964 149.948 84.1401 141.587 84.7498 154.682C85.3596 167.778 69.5045 160.86 61.5008 155.765Z" fill="#A1BD71"/>
<rect width="0.925781" height="8.11258" transform="matrix(-0.0465138 -0.998918 -0.998918 0.0465138 90.416 155.158)" fill="#A1BD71"/>
<rect x="94.1426" y="146.117" width="0.925781" height="9.59702" transform="rotate(27.334 94.1426 146.117)" fill="#A1BD71"/>
<path d="M94.6041 83.9547C90.5143 92.5162 80.7299 106.781 74.3108 95.3509C67.8917 83.9203 85.165 82.9907 94.6041 83.9547Z" fill="#A1BD71"/>
<path d="M45.0622 83.3541C54.5215 82.6152 71.7678 83.9561 65.0782 95.2305C58.3886 106.505 48.9469 92.0106 45.0622 83.3541Z" fill="#A1BD71"/>
<rect width="0.925781" height="8.11258" transform="matrix(0.510281 -0.860008 -0.860008 -0.510281 69.5508 98.7432)" fill="#A1BD71"/>
<rect x="77.6328" y="93.2393" width="0.925781" height="9.59702" transform="rotate(60.6826 77.6328 93.2393)" fill="#A1BD71"/>
<path d="M121.303 48.752C111.896 49.9922 94.6032 49.5694 100.684 37.9555C106.766 26.3417 116.964 40.3141 121.303 48.752Z" fill="#A1BD71"/>
<path d="M94.7911 6.897C100.569 14.4233 108.849 29.6111 95.7504 30.1515C82.6519 30.6919 89.6531 14.8736 94.7911 6.897Z" fill="#A1BD71"/>
<rect width="0.925781" height="8.11258" transform="matrix(0.99915 -0.041219 -0.041219 -0.99915 95.2441 35.8154)" fill="#A1BD71"/>
<rect x="104.266" y="39.5894" width="0.925781" height="9.59702" transform="rotate(117.638 104.266 39.5894)" fill="#A1BD71"/>
</svg>
