<svg width="19" height="19" viewBox="0 0 19 19" fill="none" xmlns="http://www.w3.org/2000/svg">
<path d="M18.2282 13.7669C18.0661 14.9985 17.4613 16.129 16.5266 16.9472C15.592 17.7654 14.3915 18.2155 13.1493 18.2132C5.93266 18.2132 0.0612036 12.3418 0.0612036 5.12515C0.0589768 3.88295 0.509004 2.68242 1.32723 1.74778C2.14546 0.813142 3.27594 0.208307 4.50751 0.0462453C4.81895 0.00821797 5.13433 0.0719324 5.40658 0.227877C5.67883 0.383822 5.89334 0.623634 6.0181 0.911513L7.93768 5.19695V5.20786C8.0332 5.42822 8.07264 5.66881 8.0525 5.90814C8.03236 6.14747 7.95325 6.37808 7.82225 6.57938C7.80589 6.60392 7.78862 6.62664 7.77045 6.64936L5.87813 8.89251C6.55889 10.2759 8.00585 11.7101 9.40736 12.3927L11.6196 10.5103C11.6413 10.4921 11.6641 10.4751 11.6878 10.4594C11.8889 10.3253 12.1203 10.2434 12.3611 10.2212C12.6018 10.199 12.8443 10.2371 13.0666 10.3322L13.0784 10.3377L17.3602 12.2563C17.6486 12.3806 17.889 12.595 18.0454 12.8673C18.2019 13.1395 18.266 13.4552 18.2282 13.7669Z" fill="white"/>
</svg>
