<svg width="25" height="24" viewBox="0 0 25 24" fill="none" xmlns="http://www.w3.org/2000/svg">
<path d="M24.2277 11.8916C24.2277 11.9493 24.2277 12.0048 24.2277 12.0637C24.1892 13.6784 23.5902 15.5151 21.0571 15.5151C18.4368 15.5151 17.8865 13.5448 17.8865 11.8916V7.36209C17.8868 7.2379 17.8615 7.11498 17.8123 7.00097C17.763 6.88696 17.6909 6.78429 17.6003 6.69934C17.5097 6.61438 17.4026 6.54896 17.2857 6.50713C17.1688 6.4653 17.0445 6.44797 16.9206 6.45619C16.6872 6.47623 16.4702 6.58402 16.3132 6.75782C16.1562 6.93162 16.071 7.15849 16.0747 7.39266V7.84561C15.2569 7.11266 14.2363 6.64462 13.1472 6.50315C12.0582 6.36168 10.9519 6.55341 9.97394 7.05309C8.99602 7.55276 8.19239 8.33694 7.66892 9.30233C7.14544 10.2677 6.92668 11.369 7.04144 12.4612C7.15619 13.5534 7.59909 14.5852 8.3118 15.4207C9.0245 16.2562 9.97357 16.8562 11.034 17.1417C12.0944 17.4272 13.2164 17.3848 14.2523 17.02C15.2881 16.6553 16.1892 15.9853 16.8368 15.0984C16.95 15.2965 17.0779 15.4857 17.2195 15.6646C17.8276 16.421 18.986 17.3269 21.0571 17.3269C21.4069 17.3281 21.7562 17.2997 22.1012 17.242C22.1864 17.2278 22.274 17.2383 22.3536 17.2722C22.4331 17.3062 22.5012 17.3622 22.5499 17.4336C22.5986 17.5051 22.6259 17.589 22.6284 17.6754C22.631 17.7619 22.6087 17.8472 22.5643 17.9214C21.4996 19.7073 19.9813 21.1797 18.1635 22.189C16.3458 23.1983 14.2933 23.7087 12.2145 23.6682C6.01136 23.5436 0.923635 18.5567 0.683574 12.357C0.622171 10.7923 0.873399 9.2312 1.42256 7.76485C1.97172 6.2985 2.80779 4.95638 3.88185 3.81702C4.95591 2.67765 6.24641 1.76391 7.67783 1.12926C9.10926 0.494605 10.6529 0.151776 12.2184 0.120831C13.7839 0.0898849 15.3398 0.371443 16.7952 0.949033C18.2506 1.52662 19.5762 2.38865 20.6945 3.48468C21.8127 4.58071 22.7012 5.88874 23.3079 7.33224C23.9145 8.77575 24.2273 10.3257 24.2277 11.8916ZM8.82755 11.8916C8.82755 12.6082 9.04007 13.3088 9.43824 13.9047C9.8364 14.5006 10.4023 14.965 11.0644 15.2393C11.7266 15.5136 12.4551 15.5853 13.1581 15.4455C13.861 15.3057 14.5066 14.9606 15.0134 14.4538C15.5201 13.947 15.8653 13.3014 16.0051 12.5985C16.1449 11.8956 16.0731 11.167 15.7989 10.5049C15.5246 9.84275 15.0602 9.27683 14.4643 8.87866C13.8684 8.4805 13.1678 8.26798 12.4511 8.26798C11.4901 8.26798 10.5684 8.64975 9.88887 9.3293C9.20932 10.0089 8.82755 10.9305 8.82755 11.8916Z" fill="white"/>
</svg>
