<svg width="22" height="29" viewBox="0 0 22 29" fill="none" xmlns="http://www.w3.org/2000/svg">
<path d="M21.0605 11.4922C21.0605 20.5553 10.9905 27.6043 10.9905 27.6043C10.9905 27.6043 0.92041 20.5553 0.92041 11.4922C0.92041 8.82144 1.98136 6.26008 3.86986 4.37157C5.75837 2.48307 8.31973 1.42212 10.9905 1.42212C13.6612 1.42212 16.2226 2.48307 18.1111 4.37157C19.9996 6.26008 21.0605 8.82144 21.0605 11.4922Z" fill="white" stroke="white" stroke-width="1.5" stroke-linecap="round" stroke-linejoin="round"/>
<path d="M10.9904 15.5202C13.215 15.5202 15.0185 13.7168 15.0185 11.4921C15.0185 9.26752 13.215 7.46411 10.9904 7.46411C8.76581 7.46411 6.9624 9.26752 6.9624 11.4921C6.9624 13.7168 8.76581 15.5202 10.9904 15.5202Z" stroke="#A1BD71" stroke-width="1.5" stroke-linecap="round" stroke-linejoin="round"/>
</svg>
