<svg width="55" height="72" viewBox="0 0 55 72" fill="none" xmlns="http://www.w3.org/2000/svg">
<path d="M18.0868 22.2345C19.6516 28.2075 21.3156 34.4939 23.0567 40.992C29.9647 66.7729 36.2741 89.1951 39.9269 101.131C37.1175 88.9691 31.3753 66.395 24.4673 40.6141C22.7276 34.1213 21.024 27.8398 19.3926 21.8846L18.0868 22.2345Z" fill="white"/>
<path d="M8.57986 21.7873C9.15204 23.8464 10.9578 26.3731 13.6099 28.5316C16.4218 30.8291 19.4706 32.1236 21.6583 32.1486C21.218 30.0288 19.3474 27.3175 16.5367 25.0247C13.8894 22.8649 11.0346 21.5892 8.88212 21.4285C6.18589 19.2768 3.89712 17.521 2.44971 16.4844C3.75363 17.6908 5.93549 19.5813 8.57986 21.7873Z" fill="white"/>
<path d="M10.9788 29.2517C8.28384 27.1047 5.9938 25.3442 4.54639 24.3076C5.85031 25.514 8.03217 27.4045 10.6765 29.6105C11.2487 31.6696 13.0545 34.1963 15.7066 36.3548C18.5185 38.6523 21.5673 39.9468 23.755 39.9718C23.3147 37.8521 21.4441 35.1407 18.6334 32.8479C15.9801 30.6847 13.1313 29.4124 10.9788 29.2517Z" fill="white"/>
<path d="M13.0747 37.0754C10.3798 34.9284 8.09101 33.1727 6.64233 32.1313C7.94626 33.3377 10.1281 35.2282 12.7725 37.4342C13.3447 39.4934 15.1505 42.02 17.8025 44.1785C20.6144 46.476 23.6632 47.7705 25.8497 47.7908C25.4094 45.6711 23.5387 42.9597 20.7281 40.667C18.0773 38.5132 15.2273 37.2361 13.0747 37.0754Z" fill="white"/>
<path d="M15.1722 44.9031C12.4772 42.7561 10.1884 41.0003 8.73975 39.959C10.0437 41.1654 12.2255 43.0559 14.8699 45.2619C15.4421 47.321 17.2479 49.8477 19.9 52.0062C22.7119 54.3037 25.7607 55.5982 27.9483 55.6232C27.508 53.5035 25.6374 50.7921 22.8268 48.4993C20.1734 46.3361 17.3247 45.0638 15.1722 44.9031Z" fill="white"/>
<path d="M17.2688 52.7268C14.5739 50.5798 12.2851 48.824 10.8364 47.7827C12.1403 48.9891 14.3222 50.8796 16.9666 53.0856C17.5388 55.1447 19.3446 57.6714 21.9966 59.8299C24.8085 62.1274 27.8573 63.4219 30.045 63.4469C29.6047 61.3272 27.7341 58.6158 24.9235 56.323C22.2714 54.1646 19.4214 52.8875 17.2688 52.7268Z" fill="white"/>
<path d="M28.2089 16.5277C28.743 18.5971 28.4424 21.6882 27.2249 24.8835C25.9385 28.2792 23.9454 30.9246 22.0633 32.0401C21.3848 29.9842 21.6491 26.7008 22.9368 23.3099C24.1495 20.1158 25.984 17.5836 27.7678 16.3681C29.0282 13.1613 30.1324 10.4964 30.8664 8.87023C30.3403 10.567 29.396 13.2951 28.2089 16.5277Z" fill="white"/>
<path d="M29.8642 24.1925C31.1246 20.9857 32.2288 18.3208 32.964 16.6993C32.438 18.3961 31.4937 21.1242 30.3066 24.3569C30.8406 26.4262 30.5401 29.5173 29.3226 32.7126C28.0362 36.1083 26.0431 38.7537 24.161 39.8692C23.4824 37.8133 23.7468 34.5299 25.0344 31.139C26.2494 27.9342 28.0804 25.408 29.8642 24.1925Z" fill="white"/>
<path d="M31.9602 32.0166C33.2206 28.8097 34.3248 26.1448 35.0587 24.5187C34.5327 26.2154 33.5884 28.9435 32.4013 32.1762C32.9354 34.2455 32.6348 37.3366 31.4173 40.5319C30.1309 43.9276 28.1378 46.5731 26.2545 47.6838C25.5759 45.628 25.8402 42.3445 27.1279 38.9536C28.3467 35.763 30.1764 33.232 31.9602 32.0166Z" fill="white"/>
<path d="M34.0578 39.8437C35.3182 36.6369 36.4225 33.972 37.1564 32.3458C36.6304 34.0426 35.6861 36.7707 34.499 40.0033C35.033 42.0727 34.7325 45.1638 33.515 48.3591C32.2285 51.7547 30.2354 54.4002 28.3534 55.5157C27.6748 53.4598 27.9391 50.1764 29.2268 46.7855C30.4431 43.5854 32.274 41.0592 34.0578 39.8437Z" fill="white"/>
<path d="M36.1542 47.6675C37.4147 44.4606 38.5189 41.7957 39.2528 40.1696C38.7268 41.8663 37.7825 44.5944 36.5954 47.8271C37.1295 49.8964 36.8289 52.9875 35.6114 56.1828C34.325 59.5785 32.3319 62.2239 30.4498 63.3394C29.7713 61.2836 30.0356 58.0001 31.3233 54.6092C32.5408 51.4139 34.3705 48.8829 36.1542 47.6675Z" fill="white"/>
<path d="M16.7529 12.2224C15.8174 8.92202 14.9831 6.1704 14.4103 4.49027C14.7687 6.22786 15.4362 9.02417 16.2954 12.345C15.5573 14.3561 15.5524 17.464 16.4434 20.751C17.3887 24.2407 19.1064 27.0486 20.8716 28.3183C21.7535 26.3292 21.8168 23.039 20.8715 19.5493C19.9806 16.2623 18.4058 13.5878 16.7529 12.2224Z" fill="white"/>
</svg>
