<svg width="30" height="30" viewBox="0 0 30 30" fill="none" xmlns="http://www.w3.org/2000/svg">
<circle cx="15.3589" cy="15.9379" r="8.54596" fill="#41574B"/>
<path d="M14.9751 0.28125C12.0822 0.28125 9.25427 1.13909 6.84893 2.74629C4.44358 4.35349 2.56884 6.63786 1.46178 9.31054C0.354726 11.9832 0.0650692 14.9242 0.629443 17.7614C1.19382 20.5987 2.58687 23.205 4.63245 25.2505C6.67803 27.2961 9.28425 28.6892 12.1215 29.2536C14.9588 29.8179 17.8998 29.5283 20.5725 28.4212C23.2451 27.3142 25.5295 25.4394 27.1367 23.0341C28.7439 20.6287 29.6017 17.8008 29.6017 14.9079C29.5977 11.0299 28.0553 7.31197 25.3132 4.56983C22.571 1.82768 18.8531 0.285345 14.9751 0.28125ZM21.3967 12.3286L13.5208 20.2045C13.4163 20.3091 13.2923 20.3921 13.1557 20.4487C13.0191 20.5053 12.8727 20.5345 12.7248 20.5345C12.577 20.5345 12.4305 20.5053 12.294 20.4487C12.1574 20.3921 12.0333 20.3091 11.9288 20.2045L8.5534 16.8291C8.34228 16.618 8.22367 16.3316 8.22367 16.0331C8.22367 15.7345 8.34228 15.4481 8.5534 15.237C8.76452 15.0259 9.05086 14.9073 9.34943 14.9073C9.648 14.9073 9.93434 15.0259 10.1455 15.237L12.7248 17.8178L19.8047 10.7365C19.9092 10.632 20.0333 10.5491 20.1699 10.4925C20.3065 10.4359 20.4529 10.4068 20.6007 10.4068C20.7486 10.4068 20.8949 10.4359 21.0315 10.4925C21.1681 10.5491 21.2922 10.632 21.3967 10.7365C21.5013 10.841 21.5842 10.9651 21.6408 11.1017C21.6974 11.2383 21.7265 11.3847 21.7265 11.5325C21.7265 11.6804 21.6974 11.8268 21.6408 11.9633C21.5842 12.0999 21.5013 12.224 21.3967 12.3286Z" fill="white"/>
</svg>
