<svg width="508" height="130" viewBox="0 0 508 130" fill="none" xmlns="http://www.w3.org/2000/svg">
<path d="M51.671 126.977L52.8377 126.677C52.371 124.591 51.2044 82.6665 64.3641 58.2193L63.3041 57.6462C49.9711 82.4267 51.2244 125.258 51.671 126.977Z" fill="#6E9E63"/>
<path d="M66.6241 35.7644C66.6241 35.7644 70.7641 44.4465 68.2441 48.3378C65.7175 52.2292 63.6375 41.1283 66.6241 35.7644Z" fill="white"/>
<path d="M69.2036 72.4053C69.2036 72.4053 65.0637 63.7165 67.5836 59.8252C70.1102 55.9405 72.1902 67.0414 69.2036 72.4053Z" fill="white"/>
<path d="M58.3242 38.4164C58.3242 38.4164 66.004 44.22 65.5574 48.8376C65.1107 53.4485 58.1509 44.5532 58.3242 38.4164Z" fill="white"/>
<path d="M77.4969 69.7534C77.4969 69.7534 69.817 63.9498 70.2636 59.3322C70.7169 54.7212 77.6768 63.6166 77.4969 69.7534Z" fill="white"/>
<path d="M52.2576 44.6664C52.2576 44.6664 61.7373 46.3522 63.4306 50.6699C65.1306 54.981 54.8842 50.2102 52.2576 44.6664Z" fill="white"/>
<path d="M83.5703 63.8897C83.5703 63.8897 74.0905 62.2039 72.3972 57.8862C70.6972 53.5684 80.9436 58.346 83.5703 63.8897Z" fill="white"/>
<path d="M50.2908 59.8918C50.2908 59.8918 57.8839 53.9749 62.2305 55.6007C66.5771 57.2199 56.1773 61.6442 50.2908 59.8918Z" fill="white"/>
<path d="M86.2435 52.549C86.2435 52.549 77.7504 57.0733 73.7438 54.7278C69.7439 52.3824 80.7503 49.8037 86.2435 52.549Z" fill="white"/>
<path d="M54.4773 66.5018C54.4773 66.5018 59.1972 58.1195 63.8304 57.9396C68.4703 57.7597 60.5838 65.8555 54.4773 66.5018Z" fill="white"/>
<path d="M82.9704 43.2938C82.9704 43.2938 78.2505 51.6761 73.6106 51.856C68.9774 52.0359 76.8639 43.9468 82.9704 43.2938Z" fill="white"/>
<path d="M60.6907 71.4457C60.6907 71.4457 61.3107 61.844 65.4106 59.6785C69.5172 57.5063 65.9105 68.2207 60.6907 71.4457Z" fill="white"/>
<path d="M76.3108 38.1964C76.3108 38.1964 75.6908 47.7981 71.5909 49.9636C67.491 52.1292 71.0909 41.4214 76.3108 38.1964Z" fill="white"/>
<path d="M49.8047 53.695C49.8047 53.695 58.7978 50.2635 62.4777 53.0887C66.1576 55.9139 54.9179 57.0999 49.8047 53.695Z" fill="white"/>
<path d="M74.6106 54.2747C74.6106 50.5767 71.6107 47.5782 67.9108 47.5782C64.2109 47.5782 61.2109 50.5767 61.2109 54.2747C61.2109 57.9728 64.2109 60.9713 67.9108 60.9713C71.6107 60.9713 74.6106 57.9728 74.6106 54.2747Z" fill="#41574B"/>
<path d="M53.9775 88.3703C53.9775 88.3703 59.804 82.44 67.8505 82.0402C75.8903 81.6404 78.3636 82.0402 78.3636 82.0402C78.3636 82.0402 73.417 87.2642 67.5172 88.3703C61.6173 89.4764 53.9775 88.3703 53.9775 88.3703Z" fill="#6E9E63"/>
<path d="M55.1843 82.62C54.1643 81.7338 53.4043 74.5109 47.1711 72.6985C40.9379 70.8928 36.5181 70.5397 36.5181 70.5397C36.5181 70.5397 41.9179 79.9281 45.8512 81.334C49.7844 82.7466 55.1843 82.62 55.1843 82.62Z" fill="#6E9E63"/>
<path d="M20.1783 126.977L21.5516 126.624C20.9983 124.172 19.625 74.8306 35.1113 46.059L33.858 45.386C18.1717 74.5441 19.645 124.951 20.1783 126.977Z" fill="#6E9E63"/>
<path d="M37.7714 19.6328C37.7714 19.6328 42.6446 29.8541 39.678 34.4318C36.7048 39.016 34.2582 25.9429 37.7714 19.6328Z" fill="white"/>
<path d="M40.8115 62.757C40.8115 62.757 35.9383 52.5357 38.9049 47.9581C41.8715 43.3738 44.3181 56.447 40.8115 62.757Z" fill="white"/>
<path d="M28.0048 22.7579C28.0048 22.7579 37.0446 29.5877 36.518 35.0182C35.9913 40.4487 27.7982 29.9742 28.0048 22.7579Z" fill="white"/>
<path d="M50.5709 59.632C50.5709 59.632 41.5378 52.8023 42.0578 47.3718C42.5844 41.9412 50.7776 52.4158 50.5709 59.632Z" fill="white"/>
<path d="M20.865 30.1074C20.865 30.1074 32.018 32.093 34.018 37.1704C36.0113 42.2477 23.9516 36.6374 20.865 30.1074Z" fill="white"/>
<path d="M57.717 52.7357C57.717 52.7357 46.564 50.75 44.564 45.6727C42.5641 40.5887 54.6238 46.2057 57.717 52.7357Z" fill="white"/>
<path d="M18.5518 48.0247C18.5518 48.0247 27.4848 41.0617 32.5981 42.974C37.7179 44.8863 25.4716 50.097 18.5518 48.0247Z" fill="white"/>
<path d="M60.8641 39.3825C60.8641 39.3825 50.8644 44.7064 46.1578 41.9478C41.4446 39.1893 54.3976 36.1575 60.8641 39.3825Z" fill="white"/>
<path d="M23.4783 55.8073C23.4783 55.8073 29.0315 45.9391 34.4914 45.7325C39.9446 45.5193 30.6648 55.041 23.4783 55.8073Z" fill="white"/>
<path d="M57.0041 28.4949C57.0041 28.4949 51.4509 38.3631 45.9911 38.5696C40.5379 38.7895 49.8176 29.2611 57.0041 28.4949Z" fill="white"/>
<path d="M30.7915 61.6243C30.7915 61.6243 31.5181 50.3235 36.3447 47.7715C41.1712 45.2261 36.938 57.8263 30.7915 61.6243Z" fill="white"/>
<path d="M49.1711 22.498C49.1711 22.498 48.4445 33.7988 43.6179 36.3508C38.7914 38.8962 43.0246 26.2961 49.1711 22.498Z" fill="white"/>
<path d="M17.9788 40.7351C17.9788 40.7351 28.5652 36.6972 32.8917 40.0155C37.225 43.3471 23.9919 44.7397 17.9788 40.7351Z" fill="white"/>
<path d="M47.1708 41.4215C47.1708 37.0704 43.6376 33.5389 39.2844 33.5389C34.9312 33.5389 31.3979 37.0704 31.3979 41.4215C31.3979 45.7726 34.9312 49.3041 39.2844 49.3041C43.6443 49.3041 47.1708 45.7726 47.1708 41.4215Z" fill="#41574B"/>
<path d="M20.6851 101.443C20.6851 101.443 27.5449 94.4671 37.0047 93.994C46.4711 93.5209 49.3777 93.994 49.3777 93.994C49.3777 93.994 43.5579 100.144 36.6114 101.443C29.6715 102.743 20.6851 101.443 20.6851 101.443Z" fill="#6E9E63"/>
<path d="M22.0983 94.6737C20.905 93.6343 19.9984 85.1254 12.6652 82.9998C5.33207 80.8742 0.125488 80.4611 0.125488 80.4611C0.125488 80.4611 6.47866 91.5087 11.1119 93.1678C15.7451 94.8203 22.0983 94.6737 22.0983 94.6737Z" fill="#6E9E63"/>
<path d="M58.1711 126.977L58.9979 126.764C58.6645 125.291 57.8445 95.6865 67.1376 78.4222L66.391 78.0157C56.9712 95.52 57.8578 125.764 58.1711 126.977Z" fill="#6E9E63"/>
<path d="M68.7307 62.5703C68.7307 62.5703 71.6573 68.7004 69.8706 71.4523C68.0907 74.1976 66.6241 66.355 68.7307 62.5703Z" fill="white"/>
<path d="M70.5503 88.4435C70.5503 88.4435 67.6238 82.3133 69.4104 79.5614C71.1903 76.8162 72.657 84.6588 70.5503 88.4435Z" fill="white"/>
<path d="M62.8706 64.4427C62.8706 64.4427 68.2905 68.5406 67.9771 71.7989C67.6638 75.0572 62.7439 68.7738 62.8706 64.4427Z" fill="white"/>
<path d="M76.4104 86.5712C76.4104 86.5712 70.9905 82.4734 71.3039 79.2151C71.6172 75.9568 76.5371 82.2402 76.4104 86.5712Z" fill="white"/>
<path d="M58.584 68.8538C58.584 68.8538 65.2772 70.0465 66.4772 73.0915C67.6772 76.1433 60.4373 72.7717 58.584 68.8538Z" fill="white"/>
<path d="M80.6969 82.4333C80.6969 82.4333 74.0037 81.2406 72.8038 78.1955C71.6105 75.1438 78.8436 78.5154 80.6969 82.4333Z" fill="white"/>
<path d="M57.1978 79.6081C57.1978 79.6081 62.5576 75.4303 65.6242 76.5764C68.6975 77.7225 61.351 80.8475 57.1978 79.6081Z" fill="white"/>
<path d="M82.5838 74.4176C82.5838 74.4176 76.584 77.6092 73.7574 75.9567C70.9374 74.3043 78.7039 72.4852 82.5838 74.4176Z" fill="white"/>
<path d="M60.158 84.2724C60.158 84.2724 63.4912 78.3489 66.7644 78.2223C70.0377 78.1023 64.4645 83.8193 60.158 84.2724Z" fill="white"/>
<path d="M80.2703 67.8876C80.2703 67.8876 76.9371 73.8112 73.6639 73.9378C70.3906 74.0644 75.9571 68.3474 80.2703 67.8876Z" fill="white"/>
<path d="M64.5442 87.7639C64.5442 87.7639 64.9842 80.9874 67.8774 79.4549C70.7707 77.9223 68.2308 85.485 64.5442 87.7639Z" fill="white"/>
<path d="M75.5706 64.2894C75.5706 64.2894 75.1307 71.0659 72.2374 72.5984C69.3441 74.131 71.8841 66.5682 75.5706 64.2894Z" fill="white"/>
<path d="M56.8577 75.2303C56.8577 75.2303 63.2109 72.8049 65.8041 74.8039C68.3974 76.7962 60.4642 77.6358 56.8577 75.2303Z" fill="white"/>
<path d="M74.3705 75.6435C74.3705 73.0316 72.2505 70.9127 69.6373 70.9127C67.024 70.9127 64.9041 73.0316 64.9041 75.6435C64.9041 78.2555 67.024 80.3744 69.6373 80.3744C72.2505 80.3744 74.3705 78.2555 74.3705 75.6435Z" fill="#41574B"/>
<path d="M58.4775 111.658C58.4775 111.658 62.5907 107.474 68.2706 107.187C73.9505 106.901 75.6904 107.187 75.6904 107.187C75.6904 107.187 72.1972 110.879 68.0306 111.658C63.864 112.438 58.4775 111.658 58.4775 111.658Z" fill="#6E9E63"/>
<path d="M59.3309 107.594C58.6109 106.967 58.0709 101.863 53.671 100.591C49.2711 99.3114 46.1445 99.0648 46.1445 99.0648C46.1445 99.0648 49.9578 105.695 52.7377 106.688C55.5176 107.68 59.3309 107.594 59.3309 107.594Z" fill="#6E9E63"/>
<path d="M103.997 126.977L105.37 126.624C104.816 124.172 103.443 74.8306 118.936 46.059L117.683 45.386C101.99 74.5441 103.47 124.951 103.997 126.977Z" fill="#6E9E63"/>
<path d="M121.589 19.6328C121.589 19.6328 126.463 29.8541 123.496 34.4318C120.529 39.016 118.076 25.9429 121.589 19.6328Z" fill="white"/>
<path d="M124.629 62.757C124.629 62.757 119.756 52.5357 122.722 47.9581C125.696 43.3738 128.142 56.447 124.629 62.757Z" fill="white"/>
<path d="M111.83 22.7579C111.83 22.7579 120.863 29.5877 120.343 35.0182C119.81 40.4487 111.616 29.9742 111.83 22.7579Z" fill="white"/>
<path d="M134.389 59.632C134.389 59.632 125.356 52.8023 125.876 47.3718C126.409 41.9412 134.603 52.4158 134.389 59.632Z" fill="white"/>
<path d="M104.683 30.1074C104.683 30.1074 115.836 32.093 117.836 37.1704C119.829 42.2477 107.776 36.6374 104.683 30.1074Z" fill="white"/>
<path d="M141.536 52.7357C141.536 52.7357 130.383 50.75 128.383 45.6727C126.389 40.5887 138.442 46.2057 141.536 52.7357Z" fill="white"/>
<path d="M102.376 48.0247C102.376 48.0247 111.309 41.0617 116.423 42.974C121.536 44.8863 109.296 50.097 102.376 48.0247Z" fill="white"/>
<path d="M144.682 39.3825C144.682 39.3825 134.682 44.7064 129.976 41.9478C125.269 39.1893 138.222 36.1575 144.682 39.3825Z" fill="white"/>
<path d="M107.303 55.8073C107.303 55.8073 112.856 45.9391 118.316 45.7325C123.763 45.5193 114.483 55.041 107.303 55.8073Z" fill="white"/>
<path d="M140.829 28.4949C140.829 28.4949 135.276 38.3631 129.816 38.5696C124.363 38.7895 133.642 29.2611 140.829 28.4949Z" fill="white"/>
<path d="M114.609 61.6243C114.609 61.6243 115.336 50.3235 120.163 47.7715C124.996 45.2261 120.756 57.8263 114.609 61.6243Z" fill="white"/>
<path d="M132.996 22.498C132.996 22.498 132.262 33.7988 127.442 36.3508C122.609 38.8962 126.849 26.2961 132.996 22.498Z" fill="white"/>
<path d="M101.803 40.7351C101.803 40.7351 112.389 36.6972 116.716 40.0155C121.043 43.3471 107.816 44.7397 101.803 40.7351Z" fill="white"/>
<path d="M123.109 49.3041C127.465 49.3041 130.996 45.7749 130.996 41.4215C130.996 37.0681 127.465 33.5389 123.109 33.5389C118.754 33.5389 115.223 37.0681 115.223 41.4215C115.223 45.7749 118.754 49.3041 123.109 49.3041Z" fill="#41574B"/>
<path d="M106.71 81.5406C106.71 81.5406 113.57 74.5642 123.029 74.0911C132.489 73.618 135.402 74.0911 135.402 74.0911C135.402 74.0911 129.583 80.2412 122.636 81.5406C115.703 82.8399 106.71 81.5406 106.71 81.5406Z" fill="#6E9E63"/>
<path d="M108.13 74.7708C106.936 73.7314 106.03 65.2225 98.6966 63.0969C91.3635 60.9713 86.157 60.5582 86.157 60.5582C86.157 60.5582 92.5101 71.6058 97.1434 73.2649C101.777 74.9241 108.13 74.7708 108.13 74.7708Z" fill="#6E9E63"/>
<path d="M78.6168 126.977L79.9901 126.597C79.4368 123.945 78.0635 70.5597 93.5498 39.4359L92.2965 38.7096C76.6102 70.2532 78.0835 124.785 78.6168 126.977Z" fill="#6E9E63"/>
<path d="M96.2099 10.844C96.2099 10.844 101.083 21.9049 98.1165 26.8556C95.1432 31.8064 92.6966 17.6671 96.2099 10.844Z" fill="white"/>
<path d="M99.2502 57.493C99.2502 57.493 94.377 46.4321 97.3436 41.4813C100.31 36.5306 102.757 50.6699 99.2502 57.493Z" fill="white"/>
<path d="M86.4433 14.2156C86.4433 14.2156 95.4764 21.6051 94.9564 27.482C94.4298 33.3589 86.2366 22.0315 86.4433 14.2156Z" fill="white"/>
<path d="M109.009 54.1149C109.009 54.1149 99.976 46.7254 100.496 40.8484C101.023 34.9782 109.222 46.3056 109.009 54.1149Z" fill="white"/>
<path d="M79.3032 22.1714C79.3032 22.1714 90.4563 24.3236 92.4562 29.8141C94.4495 35.3112 82.3898 29.2344 79.3032 22.1714Z" fill="white"/>
<path d="M116.156 46.652C116.156 46.652 105.003 44.4997 103.003 39.0093C101.003 33.5121 113.063 39.589 116.156 46.652Z" fill="white"/>
<path d="M76.99 41.5613C76.99 41.5613 85.9231 34.0319 91.0363 36.0975C96.1562 38.1631 83.9165 43.7935 76.99 41.5613Z" fill="white"/>
<path d="M119.302 32.2062C119.302 32.2062 109.302 37.9698 104.596 34.9847C99.8826 31.9996 112.836 28.7213 119.302 32.2062Z" fill="white"/>
<path d="M81.917 49.9769C81.917 49.9769 87.4702 39.3025 92.9301 39.0759C98.3833 38.8494 89.1035 49.1507 81.917 49.9769Z" fill="white"/>
<path d="M115.442 20.4324C115.442 20.4324 109.889 31.1068 104.429 31.3334C98.9761 31.5599 108.256 21.2586 115.442 20.4324Z" fill="white"/>
<path d="M89.23 56.2736C89.23 56.2736 89.9566 44.0466 94.7832 41.288C99.6097 38.5228 95.3765 52.1624 89.23 56.2736Z" fill="white"/>
<path d="M107.61 13.9355C107.61 13.9355 106.876 26.1625 102.056 28.9211C97.2299 31.6796 101.463 18.0467 107.61 13.9355Z" fill="white"/>
<path d="M76.417 33.6719C76.417 33.6719 87.0035 29.3009 91.33 32.899C95.6633 36.4905 82.4302 38.003 76.417 33.6719Z" fill="white"/>
<path d="M105.61 34.4117C105.61 29.7008 102.076 25.8828 97.7232 25.8828C93.37 25.8828 89.8367 29.7008 89.8367 34.4117C89.8367 39.1226 93.37 42.9406 97.7232 42.9406C102.083 42.9406 105.61 39.1226 105.61 34.4117Z" fill="#41574B"/>
<path d="M79.1238 99.3511C79.1238 99.3511 85.9836 91.8018 95.4434 91.2954C104.91 90.7823 107.816 91.2954 107.816 91.2954C107.816 91.2954 101.997 97.9452 95.0501 99.3511C88.1036 100.757 79.1238 99.3511 79.1238 99.3511Z" fill="#6E9E63"/>
<path d="M80.537 92.0217C79.3437 90.8956 78.437 81.6938 71.1039 79.3883C63.7707 77.0828 58.5642 76.6431 58.5642 76.6431C58.5642 76.6431 64.9174 88.5968 69.5506 90.3892C74.1838 92.1883 80.537 92.0217 80.537 92.0217Z" fill="#6E9E63"/>
<path d="M111.649 126.977L112.623 126.73C112.236 124.998 111.263 90.156 122.202 69.84L121.322 69.3669C110.229 89.9561 111.276 125.551 111.649 126.977Z" fill="#6E9E63"/>
<path d="M124.069 51.183C124.069 51.183 127.509 58.3992 125.416 61.6309C123.316 64.8625 121.589 55.634 124.069 51.183Z" fill="white"/>
<path d="M126.216 81.6271C126.216 81.6271 122.776 74.4108 124.869 71.1792C126.969 67.9475 128.695 77.1761 126.216 81.6271Z" fill="white"/>
<path d="M117.176 53.3818C117.176 53.3818 123.556 58.206 123.183 62.0373C122.816 65.8753 117.029 58.4792 117.176 53.3818Z" fill="white"/>
<path d="M133.109 79.4282C133.109 79.4282 126.729 74.604 127.102 70.7727C127.469 66.9347 133.256 74.3308 133.109 79.4282Z" fill="white"/>
<path d="M112.13 58.5791C112.13 58.5791 120.003 59.985 121.416 63.5698C122.83 67.148 114.316 63.1834 112.13 58.5791Z" fill="white"/>
<path d="M138.156 74.5508C138.156 74.5508 130.283 73.1449 128.87 69.5601C127.456 65.9753 135.969 69.9465 138.156 74.5508Z" fill="white"/>
<path d="M110.503 71.2326C110.503 71.2326 116.81 66.3152 120.423 67.6678C124.03 69.0138 115.39 72.6918 110.503 71.2326Z" fill="white"/>
<path d="M140.376 65.129C140.376 65.129 133.316 68.8871 129.989 66.9414C126.67 64.9891 135.816 62.8502 140.376 65.129Z" fill="white"/>
<path d="M113.976 76.7231C113.976 76.7231 117.896 69.7534 121.749 69.6068C125.609 69.4602 119.05 76.1834 113.976 76.7231Z" fill="white"/>
<path d="M137.656 57.4397C137.656 57.4397 133.736 64.4094 129.882 64.556C126.023 64.7026 132.582 57.9794 137.656 57.4397Z" fill="white"/>
<path d="M119.143 80.8342C119.143 80.8342 119.656 72.8584 123.063 71.0526C126.476 69.2469 123.483 78.1489 119.143 80.8342Z" fill="white"/>
<path d="M132.122 53.202C132.122 53.202 131.609 61.1779 128.203 62.9836C124.789 64.7827 127.783 55.8806 132.122 53.202Z" fill="white"/>
<path d="M110.096 66.0819C110.096 66.0819 117.569 63.23 120.629 65.5755C123.683 67.9209 114.343 68.9071 110.096 66.0819Z" fill="white"/>
<path d="M130.709 66.5616C130.709 63.4898 128.216 60.9978 125.143 60.9978C122.07 60.9978 119.576 63.4898 119.576 66.5616C119.576 69.6333 122.07 72.1253 125.143 72.1253C128.216 72.1253 130.709 69.64 130.709 66.5616Z" fill="#41574B"/>
<path d="M112.003 108.946C112.003 108.946 116.849 104.022 123.529 103.689C130.209 103.356 132.262 103.689 132.262 103.689C132.262 103.689 128.149 108.027 123.249 108.946C118.349 109.866 112.003 108.946 112.003 108.946Z" fill="#6E9E63"/>
<path d="M113.01 104.169C112.163 103.436 111.53 97.4256 106.35 95.9264C101.17 94.4272 97.4968 94.134 97.4968 94.134C97.4968 94.134 101.983 101.937 105.257 103.103C108.516 104.269 113.01 104.169 113.01 104.169Z" fill="#6E9E63"/>
<path d="M147.155 126.977L147.855 126.797C147.575 125.551 146.875 100.464 154.748 85.8383L154.115 85.4985C146.135 100.324 146.882 125.951 147.155 126.977Z" fill="#6E9E63"/>
<path d="M156.095 72.4052C156.095 72.4052 158.575 77.6025 157.062 79.928C155.556 82.2601 154.309 75.6169 156.095 72.4052Z" fill="white"/>
<path d="M157.642 94.3272C157.642 94.3272 155.162 89.1299 156.675 86.8045C158.182 84.479 159.428 91.1222 157.642 94.3272Z" fill="white"/>
<path d="M151.135 73.9911C151.135 73.9911 155.729 77.4626 155.462 80.2278C155.195 82.9864 151.029 77.6625 151.135 73.9911Z" fill="white"/>
<path d="M162.608 92.7413C162.608 92.7413 158.015 89.2698 158.281 86.5112C158.548 83.746 162.715 89.0699 162.608 92.7413Z" fill="white"/>
<path d="M147.502 77.7292C147.502 77.7292 153.175 78.742 154.189 81.3206C155.202 83.906 149.075 81.0475 147.502 77.7292Z" fill="white"/>
<path d="M166.235 89.2364C166.235 89.2364 160.569 88.2236 159.549 85.6449C158.536 83.0596 164.669 85.9115 166.235 89.2364Z" fill="white"/>
<path d="M146.329 86.8377C146.329 86.8377 150.869 83.2995 153.469 84.2723C156.069 85.2452 149.849 87.8905 146.329 86.8377Z" fill="white"/>
<path d="M167.835 82.4467C167.835 82.4467 162.756 85.1519 160.356 83.7526C157.956 82.3534 164.549 80.8075 167.835 82.4467Z" fill="white"/>
<path d="M148.829 90.7957C148.829 90.7957 151.655 85.7783 154.428 85.6717C157.202 85.565 152.482 90.4092 148.829 90.7957Z" fill="white"/>
<path d="M165.875 76.9095C165.875 76.9095 163.048 81.9269 160.275 82.0335C157.502 82.1402 162.222 77.3027 165.875 76.9095Z" fill="white"/>
<path d="M152.549 93.7541C152.549 93.7541 152.922 88.0105 155.375 86.7111C157.829 85.4118 155.675 91.8218 152.549 93.7541Z" fill="white"/>
<path d="M161.895 73.8577C161.895 73.8577 161.522 79.6014 159.069 80.9007C156.615 82.2 158.769 75.7901 161.895 73.8577Z" fill="white"/>
<path d="M146.036 83.1331C146.036 83.1331 151.416 81.0808 153.615 82.7666C155.815 84.4591 149.096 85.172 146.036 83.1331Z" fill="white"/>
<path d="M156.869 87.4841C159.081 87.4841 160.875 85.6912 160.875 83.4795C160.875 81.2679 159.081 79.475 156.869 79.475C154.656 79.475 152.862 81.2679 152.862 83.4795C152.862 85.6912 154.656 87.4841 156.869 87.4841Z" fill="#41574B"/>
<path d="M148.535 103.882C148.535 103.882 152.022 100.337 156.835 100.098C161.648 99.8576 163.122 100.098 163.122 100.098C163.122 100.098 160.162 103.223 156.635 103.882C153.102 104.542 148.535 103.882 148.535 103.882Z" fill="#6E9E63"/>
<path d="M149.255 100.437C148.649 99.9043 148.189 95.5865 144.462 94.5004C140.736 93.4143 138.089 93.2078 138.089 93.2078C138.089 93.2078 141.322 98.8248 143.675 99.6644C146.022 100.511 149.255 100.437 149.255 100.437Z" fill="#6E9E63"/>
<path d="M128.309 126.977L129.129 126.764C128.796 125.298 127.976 95.7798 137.242 78.5621L136.496 78.1624C127.109 95.6066 127.989 125.764 128.309 126.977Z" fill="#6E9E63"/>
<path d="M138.835 62.757C138.835 62.757 141.755 68.8738 139.975 71.6123C138.195 74.3509 136.735 66.5283 138.835 62.757Z" fill="white"/>
<path d="M140.655 88.5569C140.655 88.5569 137.735 82.44 139.515 79.7015C141.289 76.9629 142.755 84.7788 140.655 88.5569Z" fill="white"/>
<path d="M132.996 64.6228C132.996 64.6228 138.402 68.7073 138.089 71.959C137.769 75.2106 132.869 68.9406 132.996 64.6228Z" fill="white"/>
<path d="M146.496 86.6846C146.496 86.6846 141.089 82.6001 141.403 79.3484C141.716 76.1034 146.616 82.3668 146.496 86.6846Z" fill="white"/>
<path d="M128.723 69.0204C128.723 69.0204 135.396 70.2064 136.589 73.2448C137.783 76.2899 130.57 72.925 128.723 69.0204Z" fill="white"/>
<path d="M150.769 82.5601C150.769 82.5601 144.095 81.374 142.902 78.3356C141.702 75.2905 148.915 78.6555 150.769 82.5601Z" fill="white"/>
<path d="M127.336 79.7414C127.336 79.7414 132.683 75.5769 135.743 76.7163C138.803 77.8624 131.476 80.9808 127.336 79.7414Z" fill="white"/>
<path d="M152.649 74.5709C152.649 74.5709 146.669 77.7559 143.849 76.1034C141.036 74.4576 148.782 72.6452 152.649 74.5709Z" fill="white"/>
<path d="M130.282 84.399C130.282 84.399 133.609 78.4954 136.869 78.3688C140.136 78.2422 134.582 83.9392 130.282 84.399Z" fill="white"/>
<path d="M150.342 68.0609C150.342 68.0609 147.015 73.9645 143.755 74.0911C140.489 74.211 146.042 68.514 150.342 68.0609Z" fill="white"/>
<path d="M134.656 87.8774C134.656 87.8774 135.096 81.1142 137.982 79.5884C140.869 78.0625 138.336 85.6052 134.656 87.8774Z" fill="white"/>
<path d="M145.655 64.4695C145.655 64.4695 145.215 71.2326 142.329 72.7585C139.442 74.2777 141.982 66.7416 145.655 64.4695Z" fill="white"/>
<path d="M126.996 75.3838C126.996 75.3838 133.329 72.965 135.916 74.9573C138.509 76.943 130.589 77.7759 126.996 75.3838Z" fill="white"/>
<path d="M144.462 75.7902C144.462 73.1849 142.349 71.0727 139.742 71.0727C137.136 71.0727 135.022 73.1849 135.022 75.7902C135.022 78.3956 137.136 80.5078 139.742 80.5078C142.349 80.5078 144.462 78.3956 144.462 75.7902Z" fill="#41574B"/>
<path d="M128.609 111.698C128.609 111.698 132.716 107.527 138.376 107.24C144.035 106.961 145.775 107.24 145.775 107.24C145.775 107.24 142.295 110.918 138.136 111.698C133.989 112.478 128.609 111.698 128.609 111.698Z" fill="#6E9E63"/>
<path d="M129.462 107.647C128.749 107.021 128.209 101.937 123.823 100.664C119.436 99.3912 116.323 99.1447 116.323 99.1447C116.323 99.1447 120.129 105.755 122.896 106.747C125.656 107.74 129.462 107.647 129.462 107.647Z" fill="#6E9E63"/>
<path d="M151.042 126.977L151.535 126.85C151.335 125.971 150.842 108.26 156.402 97.932L155.955 97.6921C150.322 108.16 150.849 126.251 151.042 126.977Z" fill="#6E9E63"/>
<path d="M157.355 88.4436C157.355 88.4436 159.102 92.115 158.042 93.7542C156.975 95.4 156.095 90.7091 157.355 88.4436Z" fill="white"/>
<path d="M158.448 103.922C158.448 103.922 156.702 100.251 157.762 98.6118C158.828 96.966 159.708 101.657 158.448 103.922Z" fill="white"/>
<path d="M153.855 89.563C153.855 89.563 157.102 92.0151 156.908 93.9674C156.722 95.9131 153.775 92.155 153.855 89.563Z" fill="white"/>
<path d="M161.955 102.803C161.955 102.803 158.709 100.351 158.902 98.3985C159.089 96.4529 162.028 100.211 161.955 102.803Z" fill="white"/>
<path d="M151.288 92.2017C151.288 92.2017 155.295 92.9146 156.008 94.7404C156.728 96.5661 152.395 94.5471 151.288 92.2017Z" fill="white"/>
<path d="M164.515 100.324C164.515 100.324 160.508 99.6112 159.795 97.7855C159.081 95.9664 163.408 97.9854 164.515 100.324Z" fill="white"/>
<path d="M150.462 98.6383C150.462 98.6383 153.668 96.1396 155.502 96.8259C157.335 97.5122 152.942 99.3779 150.462 98.6383Z" fill="white"/>
<path d="M165.648 95.5332C165.648 95.5332 162.061 97.4456 160.368 96.4527C158.675 95.4599 163.328 94.3738 165.648 95.5332Z" fill="white"/>
<path d="M152.229 101.43C152.229 101.43 154.222 97.8854 156.182 97.8121C158.135 97.7388 154.808 101.157 152.229 101.43Z" fill="white"/>
<path d="M164.262 91.6286C164.262 91.6286 162.268 95.1734 160.309 95.2467C158.349 95.32 161.682 91.9018 164.262 91.6286Z" fill="white"/>
<path d="M154.855 103.516C154.855 103.516 155.115 99.4579 156.848 98.5451C158.582 97.6322 157.055 102.157 154.855 103.516Z" fill="white"/>
<path d="M161.448 89.4698C161.448 89.4698 161.188 93.5277 159.455 94.4405C157.722 95.36 159.248 90.8357 161.448 89.4698Z" fill="white"/>
<path d="M150.255 96.0197C150.255 96.0197 154.055 94.5672 155.608 95.7599C157.162 96.9593 152.408 97.459 150.255 96.0197Z" fill="white"/>
<path d="M160.735 96.2662C160.735 94.7003 159.468 93.4343 157.902 93.4343C156.342 93.4343 155.068 94.7003 155.068 96.2662C155.068 97.8254 156.335 99.098 157.902 99.098C159.468 99.098 160.735 97.8254 160.735 96.2662Z" fill="#41574B"/>
<path d="M151.222 117.815C151.222 117.815 153.682 115.31 157.082 115.143C160.482 114.977 161.522 115.143 161.522 115.143C161.522 115.143 159.428 117.349 156.942 117.815C154.448 118.281 151.222 117.815 151.222 117.815Z" fill="#6E9E63"/>
<path d="M151.735 115.383C151.309 115.01 150.982 111.958 148.349 111.192C145.715 110.425 143.849 110.279 143.849 110.279C143.849 110.279 146.129 114.243 147.795 114.836C149.449 115.436 151.735 115.383 151.735 115.383Z" fill="#6E9E63"/>
<path d="M178.461 126.977L179.281 126.764C178.948 125.298 178.128 95.7798 187.394 78.5621L186.648 78.1624C177.255 95.6066 178.141 125.764 178.461 126.977Z" fill="#6E9E63"/>
<path d="M188.981 62.757C188.981 62.757 191.901 68.8738 190.121 71.6123C188.348 74.3509 186.881 66.5283 188.981 62.757Z" fill="white"/>
<path d="M190.801 88.5569C190.801 88.5569 187.881 82.44 189.661 79.7015C191.441 76.9629 192.901 84.7788 190.801 88.5569Z" fill="white"/>
<path d="M183.141 64.6228C183.141 64.6228 188.547 68.7073 188.234 71.959C187.921 75.2106 183.014 68.9406 183.141 64.6228Z" fill="white"/>
<path d="M196.641 86.6846C196.641 86.6846 191.234 82.6001 191.548 79.3484C191.868 76.1034 196.768 82.3668 196.641 86.6846Z" fill="white"/>
<path d="M178.868 69.0204C178.868 69.0204 185.541 70.2064 186.734 73.2448C187.934 76.2899 180.721 72.925 178.868 69.0204Z" fill="white"/>
<path d="M200.914 82.5601C200.914 82.5601 194.241 81.374 193.048 78.3356C191.854 75.2905 199.068 78.6555 200.914 82.5601Z" fill="white"/>
<path d="M177.488 79.7414C177.488 79.7414 182.834 75.5769 185.894 76.7163C188.954 77.8624 181.628 80.9808 177.488 79.7414Z" fill="white"/>
<path d="M202.801 74.5709C202.801 74.5709 196.821 77.7559 194.001 76.1034C191.181 74.4576 198.934 72.6452 202.801 74.5709Z" fill="white"/>
<path d="M180.435 84.399C180.435 84.399 183.761 78.4954 187.021 78.3688C190.288 78.2422 184.734 83.9392 180.435 84.399Z" fill="white"/>
<path d="M200.494 68.0609C200.494 68.0609 197.167 73.9645 193.907 74.0911C190.641 74.211 196.194 68.514 200.494 68.0609Z" fill="white"/>
<path d="M184.808 87.8774C184.808 87.8774 185.248 81.1142 188.134 79.5884C191.021 78.0625 188.488 85.6052 184.808 87.8774Z" fill="white"/>
<path d="M195.808 64.4695C195.808 64.4695 195.368 71.2326 192.481 72.7585C189.594 74.2777 192.128 66.7416 195.808 64.4695Z" fill="white"/>
<path d="M177.141 75.3838C177.141 75.3838 183.474 72.965 186.061 74.9573C188.654 76.943 180.741 77.7759 177.141 75.3838Z" fill="white"/>
<path d="M194.607 75.7902C194.607 73.1849 192.494 71.0727 189.887 71.0727C187.281 71.0727 185.167 73.1849 185.167 75.7902C185.167 78.3956 187.281 80.5078 189.887 80.5078C192.501 80.5078 194.607 78.3956 194.607 75.7902Z" fill="#41574B"/>
<path d="M180.081 99.791C180.081 99.791 184.188 95.6199 189.848 95.3334C195.508 95.0535 197.248 95.3334 197.248 95.3334C197.248 95.3334 193.768 99.0114 189.614 99.791C185.461 100.571 180.081 99.791 180.081 99.791Z" fill="#6E9E63"/>
<path d="M180.934 95.7464C180.221 95.1201 179.681 90.0361 175.294 88.7634C170.908 87.4907 167.795 87.2442 167.795 87.2442C167.795 87.2442 171.595 93.8541 174.368 94.8469C177.128 95.833 180.934 95.7464 180.934 95.7464Z" fill="#6E9E63"/>
<path d="M163.275 126.977L164.095 126.75C163.762 125.164 162.942 93.2278 172.208 74.6041L171.462 74.171C162.075 93.0412 162.955 125.664 163.275 126.977Z" fill="#6E9E63"/>
<path d="M173.795 57.493C173.795 57.493 176.715 64.1096 174.935 67.0747C173.162 70.0398 171.695 61.5776 173.795 57.493Z" fill="white"/>
<path d="M175.615 85.4052C175.615 85.4052 172.695 78.7886 174.475 75.8235C176.255 72.8651 177.715 81.3207 175.615 85.4052Z" fill="white"/>
<path d="M167.955 59.5121C167.955 59.5121 173.362 63.9298 173.048 67.448C172.735 70.9661 167.828 64.1896 167.955 59.5121Z" fill="white"/>
<path d="M181.455 83.3863C181.455 83.3863 176.048 78.9686 176.361 75.4505C176.681 71.9323 181.581 78.7154 181.455 83.3863Z" fill="white"/>
<path d="M163.682 64.2761C163.682 64.2761 170.355 65.5621 171.548 68.8471C172.748 72.132 165.528 68.5006 163.682 64.2761Z" fill="white"/>
<path d="M185.728 78.9219C185.728 78.9219 179.055 77.6359 177.861 74.3509C176.668 71.0593 183.881 74.6974 185.728 78.9219Z" fill="white"/>
<path d="M162.302 75.8769C162.302 75.8769 167.648 71.3726 170.708 72.6053C173.768 73.838 166.441 77.2095 162.302 75.8769Z" fill="white"/>
<path d="M187.615 70.2797C187.615 70.2797 181.635 73.7246 178.815 71.9388C175.995 70.1531 183.748 68.1941 187.615 70.2797Z" fill="white"/>
<path d="M165.248 80.9075C165.248 80.9075 168.575 74.5175 171.835 74.3842C175.101 74.2509 169.548 80.4144 165.248 80.9075Z" fill="white"/>
<path d="M185.308 63.2301C185.308 63.2301 181.981 69.6201 178.721 69.7534C175.455 69.8933 181.008 63.7232 185.308 63.2301Z" fill="white"/>
<path d="M169.622 84.6723C169.622 84.6723 170.062 77.3561 172.948 75.7037C175.835 74.0579 173.301 82.2203 169.622 84.6723Z" fill="white"/>
<path d="M180.621 59.3455C180.621 59.3455 180.181 66.6617 177.295 68.3141C174.408 69.9666 176.941 61.8042 180.621 59.3455Z" fill="white"/>
<path d="M161.955 71.1527C161.955 71.1527 168.288 68.5407 170.875 70.6863C173.468 72.8451 165.555 73.7447 161.955 71.1527Z" fill="white"/>
<path d="M179.421 71.5989C179.421 68.7804 177.308 66.4949 174.702 66.4949C172.095 66.4949 169.982 68.7804 169.982 71.5989C169.982 74.4175 172.095 76.703 174.702 76.703C177.315 76.6963 179.421 74.4175 179.421 71.5989Z" fill="#41574B"/>
<path d="M163.575 110.445C163.575 110.445 167.682 105.928 173.342 105.621C179.001 105.315 180.741 105.621 180.741 105.621C180.741 105.621 177.255 109.599 173.102 110.445C168.955 111.292 163.575 110.445 163.575 110.445Z" fill="#6E9E63"/>
<path d="M164.422 106.068C163.708 105.395 163.168 99.891 158.782 98.5117C154.395 97.1324 151.282 96.8726 151.282 96.8726C151.282 96.8726 155.082 104.022 157.855 105.095C160.622 106.161 164.422 106.068 164.422 106.068Z" fill="#6E9E63"/>
<path d="M183.035 126.977L183.614 126.83C183.381 125.797 182.801 104.948 189.341 92.7946L188.814 92.5081C182.188 104.828 182.815 126.124 183.035 126.977Z" fill="#6E9E63"/>
<path d="M190.468 81.6271C190.468 81.6271 192.528 85.9449 191.274 87.8772C190.021 89.8162 188.981 84.2991 190.468 81.6271Z" fill="white"/>
<path d="M191.754 99.8442C191.754 99.8442 189.694 95.5265 190.948 93.5942C192.201 91.6619 193.234 97.179 191.754 99.8442Z" fill="white"/>
<path d="M186.341 82.9465C186.341 82.9465 190.161 85.8316 189.934 88.1238C189.714 90.4226 186.255 85.9982 186.341 82.9465Z" fill="white"/>
<path d="M195.874 98.5317C195.874 98.5317 192.054 95.6465 192.281 93.3544C192.501 91.0556 195.968 95.48 195.874 98.5317Z" fill="white"/>
<path d="M183.328 86.0514C183.328 86.0514 188.041 86.8909 188.881 89.0365C189.728 91.182 184.628 88.81 183.328 86.0514Z" fill="white"/>
<path d="M198.894 95.6132C198.894 95.6132 194.181 94.7736 193.341 92.6281C192.494 90.4825 197.588 92.8546 198.894 95.6132Z" fill="white"/>
<path d="M182.348 93.6276C182.348 93.6276 186.121 90.6891 188.281 91.4954C190.448 92.295 185.274 94.5005 182.348 93.6276Z" fill="white"/>
<path d="M200.227 89.9761C200.227 89.9761 196.001 92.2283 194.014 91.0622C192.021 89.8895 197.494 88.6102 200.227 89.9761Z" fill="white"/>
<path d="M184.428 96.9125C184.428 96.9125 186.774 92.7414 189.081 92.6548C191.388 92.5681 187.468 96.5927 184.428 96.9125Z" fill="white"/>
<path d="M198.594 85.3719C198.594 85.3719 196.248 89.5431 193.941 89.6297C191.634 89.723 195.561 85.6984 198.594 85.3719Z" fill="white"/>
<path d="M187.521 99.3713C187.521 99.3713 187.828 94.6004 189.868 93.521C191.908 92.4415 190.114 97.7654 187.521 99.3713Z" fill="white"/>
<path d="M195.287 82.8398C195.287 82.8398 194.981 87.6107 192.941 88.6901C190.901 89.7696 192.688 84.4457 195.287 82.8398Z" fill="white"/>
<path d="M182.108 90.5424C182.108 90.5424 186.581 88.8367 188.408 90.2426C190.234 91.6485 184.648 92.2349 182.108 90.5424Z" fill="white"/>
<path d="M194.441 90.8357C194.441 88.9967 192.947 87.5042 191.107 87.5042C189.267 87.5042 187.774 88.9967 187.774 90.8357C187.774 92.6748 189.267 94.1673 191.107 94.1673C192.947 94.1673 194.441 92.6748 194.441 90.8357Z" fill="#41574B"/>
<path d="M183.248 116.189C183.248 116.189 186.148 113.244 190.141 113.044C194.134 112.844 195.368 113.044 195.368 113.044C195.368 113.044 192.908 115.643 189.974 116.189C187.048 116.742 183.248 116.189 183.248 116.189Z" fill="#6E9E63"/>
<path d="M183.848 113.331C183.341 112.891 182.961 109.299 179.861 108.4C176.761 107.5 174.562 107.327 174.562 107.327C174.562 107.327 177.248 111.998 179.201 112.698C181.161 113.391 183.848 113.331 183.848 113.331Z" fill="#6E9E63"/>
<path d="M253.119 38.5112C253.119 38.5112 320.793 32.5817 339.186 38.5112C357.58 44.4406 366.78 72.02 364.153 92.1596C361.525 112.299 355.391 129.371 343.565 128.933C331.739 128.496 248.084 128.933 248.084 128.933L253.119 38.5112Z" fill="#EDBD77"/>
<path d="M266.941 37.4771C266.941 37.4771 281.266 34.8127 291.01 33.8259C291.01 33.8259 283.344 35.3962 282.395 36.1985C282.395 36.1985 303.201 33.0622 310.791 33.8259C318.384 34.5939 328.785 35.8767 328.785 35.8767L340.354 35.1045C340.354 35.1045 330.717 36.2715 331.228 36.4174C331.739 36.5632 340.646 37.6573 343.492 39.4808C343.492 39.4808 352.326 42.2524 354.224 43.93C354.224 43.93 347.141 40.356 344.368 40.5748C344.368 40.5748 360.413 51.7001 360.456 62.2976C360.499 72.8952 291.444 46.337 291.444 46.337L266.941 37.4771Z" fill="#EDBD77"/>
<path d="M262.799 37.9792C262.799 37.9792 235.863 35.9326 218.782 57.5996C201.702 79.2666 215.499 129.448 237.833 129.637C260.172 129.83 287.684 126.398 293.637 97.2524C299.587 68.107 287.104 38.7128 262.799 37.9792Z" fill="#D1A155"/>
<path d="M207.643 81.2145C207.643 81.2145 217.28 70.1236 218.302 67.0602L219.761 70.1236L207.643 81.2145Z" fill="#D1A155"/>
<path d="M214.597 64.7947C214.597 64.7947 215.816 56.8444 219.323 53.9269C219.323 53.9269 216.138 59.2557 216.962 63.7049C217.782 68.1499 214.597 64.7947 214.597 64.7947Z" fill="#D1A155"/>
<path d="M219.323 121.052C219.499 121.477 214.142 106.494 215.894 103.65L216.915 103.658C216.911 103.658 217.606 116.89 219.323 121.052Z" fill="#D1A155"/>
<path d="M215.014 101.569C215.014 101.569 211 100.256 208.738 101.569C208.738 101.569 212.459 100.526 214.722 102.736C216.988 104.945 215.014 101.569 215.014 101.569Z" fill="#D1A155"/>
<path d="M252.14 128.878C245.946 128.878 238.494 127.826 232.128 123.935C225.247 119.726 220.757 112.943 218.774 103.77C215.396 88.1522 217.057 75.3408 223.702 65.6872C229.918 56.6642 240.409 50.7863 254.046 48.6925C263.25 47.2766 271.221 50.2542 277.094 57.2907C285.58 67.4591 288.018 84.6426 283.022 99.0715C279.493 109.266 270.067 115.564 257.811 115.916C257.459 115.925 257.111 115.933 256.764 115.933C244.418 115.933 233.287 109.626 229.463 100.354C225.565 90.9024 225.771 81.6564 230.033 74.3196C234.36 66.8713 242.538 62.0231 253.051 60.6759C262.567 59.4488 267.701 63.8809 270.333 67.811C275.407 75.3923 275.394 87.7103 271.994 93.6569C268.719 99.3847 259.648 103.808 251.771 103.534C246.088 103.328 241.748 100.702 239.555 96.1325C236.73 90.2546 236.919 84.1835 240.061 79.4768C242.594 75.6883 246.685 73.3757 250.479 73.5817C254.841 73.8177 256.695 77.456 256.965 80.5023C257.201 83.1838 256.287 86.1657 254.081 86.6806C249.981 87.6373 248.53 85.402 248.47 85.3033C248.47 85.3033 246.255 81.6521 249.011 81.1287C252.166 80.528 251.338 82.9736 251.338 82.9736C251.381 83.0422 250.557 86.3459 253.828 85.5822C255.175 85.269 256.06 83.0765 255.845 80.5966C255.605 77.8765 254.055 74.8989 250.423 74.7015C247.011 74.5084 243.319 76.6322 241.001 80.0989C238.082 84.4667 237.928 90.1301 240.572 95.6434C243.143 100.994 248.105 102.277 251.814 102.41C259.309 102.667 267.929 98.5009 271.019 93.0992C273.883 88.0921 274.651 76.289 269.401 68.4374C265.886 63.1815 260.279 60.8818 253.197 61.7914C243.04 63.0957 235.159 67.7466 231.012 74.886C226.93 81.9138 226.75 90.8037 230.51 99.9253C234.266 109.034 245.487 115.148 257.781 114.792C269.551 114.453 278.592 108.438 281.961 98.7025C286.834 84.6254 284.477 67.8968 276.231 58.0115C272.32 53.3262 265.332 48.1047 254.222 49.8037C240.898 51.8503 230.669 57.561 224.633 66.3222C218.169 75.7098 216.567 88.2252 219.877 103.529C221.792 112.389 226.114 118.932 232.721 122.974C246.071 131.139 267.126 126.196 267.311 126.149L264.928 127.436C264.821 127.462 259.331 128.878 252.14 128.878Z" fill="#EDBD77"/>
<path d="M357.808 7.10037C357.808 7.10037 448.803 -0.871374 473.541 7.10037C498.275 15.0721 510.647 52.1592 507.11 79.2365C503.577 106.314 495.331 129.272 479.431 128.685C463.531 128.097 351.038 128.685 351.038 128.685L357.808 7.10037Z" fill="#EDBD77"/>
<path d="M376.39 5.70602C376.39 5.70602 395.647 2.11916 408.752 0.797689C408.752 0.797689 398.446 2.90862 397.171 3.98553C397.171 3.98553 425.146 -0.23203 435.354 0.797689C445.562 1.82741 459.552 3.55648 459.552 3.55648L475.108 2.51389C475.108 2.51389 462.153 4.08422 462.84 4.28158C463.526 4.47894 475.503 5.95058 479.332 8.40045C479.332 8.40045 491.21 12.1289 493.759 14.3857C493.759 14.3857 484.238 9.57605 480.508 9.8721C480.508 9.8721 502.087 24.8331 502.143 39.0818C502.199 53.3348 409.341 17.6207 409.341 17.6207L376.39 5.70602Z" fill="#EDBD77"/>
<path d="M370.823 6.38393C370.823 6.38393 334.602 3.63372 311.636 32.7705C288.671 61.9073 307.219 129.38 337.255 129.637C367.29 129.895 404.284 125.282 412.29 86.0885C420.291 46.8948 403.507 7.37074 370.823 6.38393Z" fill="#D1A155"/>
<path d="M296.655 64.5202C296.655 64.5202 309.61 49.6064 310.984 45.4875L312.945 49.6064L296.655 64.5202Z" fill="#D1A155"/>
<path d="M306.008 42.4413C306.008 42.4413 307.652 31.7494 312.361 27.8236C312.361 27.8236 308.077 34.993 309.185 40.9697C310.288 46.9549 306.008 42.4413 306.008 42.4413Z" fill="#D1A155"/>
<path d="M312.361 118.087C312.597 118.662 305.39 98.5138 307.747 94.6866L309.116 94.6995C309.116 94.7038 310.056 112.497 312.361 118.087Z" fill="#D1A155"/>
<path d="M306.571 91.8935C306.571 91.8935 301.171 90.1259 298.127 91.8935C298.127 91.8935 303.128 90.4948 306.176 93.4639C309.224 96.4329 306.571 91.8935 306.571 91.8935Z" fill="#D1A155"/>
<path d="M356.49 128.612C348.162 128.612 338.139 127.2 329.579 121.966C320.329 116.307 314.289 107.185 311.619 94.8497C307.077 73.852 309.309 56.6257 318.247 43.6426C326.604 31.5091 340.71 23.606 359.048 20.7914C371.424 18.8907 382.142 22.8895 390.037 32.3543C401.446 46.0281 404.722 69.1325 398.008 88.5341C393.265 102.242 380.589 110.712 364.109 111.188C363.637 111.201 363.169 111.209 362.701 111.209C346.097 111.209 331.133 102.727 325.995 90.2589C320.758 77.5504 321.028 65.1166 326.759 55.2527C332.58 45.2344 343.569 38.7214 357.709 36.9065C370.505 35.259 377.412 41.2185 380.949 46.5001C387.774 56.6943 387.757 73.2556 383.181 81.2531C378.777 88.9546 366.577 94.9012 355.988 94.5322C348.347 94.2576 342.513 90.7223 339.56 84.5783C335.765 76.6752 336.014 68.5103 340.242 62.1819C343.646 57.0847 349.149 53.9784 354.253 54.253C360.117 54.5705 362.615 59.466 362.972 63.5591C363.289 67.1674 362.057 71.179 359.095 71.8698C353.584 73.1527 351.63 70.1493 351.549 70.0206C351.549 70.0206 348.574 65.108 352.274 64.4043C356.515 63.5977 355.399 66.8843 355.399 66.8843C355.46 66.9743 354.352 71.4236 358.748 70.3939C360.559 69.9691 361.753 67.0258 361.461 63.6921C361.139 60.0366 359.057 56.0336 354.167 55.7676C349.579 55.5058 344.612 58.3676 341.5 63.0271C337.576 68.9008 337.366 76.5164 340.925 83.9261C344.38 91.1213 351.051 92.8418 356.039 93.022C366.118 93.3652 377.708 87.7661 381.864 80.5023C385.714 73.7705 386.749 57.8957 379.687 47.341C374.957 40.2746 367.423 37.1811 357.902 38.4082C344.243 40.163 333.649 46.4143 328.068 56.0164C322.578 65.4641 322.338 77.4217 327.394 89.684C332.442 101.933 347.535 110.154 364.066 109.678C379.893 109.223 392.05 101.135 396.579 88.045C403.129 69.1196 399.961 46.6202 388.873 33.3326C383.619 27.0341 374.218 20.0106 359.28 22.2974C341.367 25.0476 327.609 32.7276 319.496 44.5093C310.803 57.132 308.653 73.9636 313.1 94.5365C315.675 106.451 321.488 115.247 330.369 120.683C348.317 131.662 376.631 125.016 376.88 124.952L373.677 126.681C373.54 126.707 366.161 128.612 356.49 128.612Z" fill="#EDBD77"/>
</svg>
